<?xml version="1.0" standalone="no"?>
<!DOCTYPE svg PUBLIC "-//W3C//DTD SVG 20010904//EN"
 "http://www.w3.org/TR/2001/REC-SVG-20010904/DTD/svg10.dtd">
<svg version="1.0" xmlns="http://www.w3.org/2000/svg"
 width="512.000000pt" height="512.000000pt" viewBox="0 0 512.000000 512.000000"
 preserveAspectRatio="xMidYMid meet">

<g transform="translate(0.000000,512.000000) scale(0.100000,-0.100000)"
fill="#000000" stroke="none">
<path d="M0 4928 l0 -193 19 35 c10 20 36 44 61 57 42 22 50 23 351 23 318 0
381 -6 452 -42 53 -26 123 -93 153 -144 15 -25 63 -183 119 -389 52 -191 96
-349 98 -351 2 -2 820 -7 1818 -12 l1814 -8 53 -23 c63 -29 144 -113 165 -173
14 -39 15 23 16 685 l1 727 -2560 0 -2560 0 0 -192z"/>
<path d="M0 2321 l0 -2321 2560 0 2560 0 0 1762 c0 969 -2 1759 -4 1757 -2 -2
-86 -359 -186 -794 -127 -551 -190 -809 -210 -852 -36 -79 -95 -137 -178 -176
l-67 -32 -1527 -5 c-1522 -5 -1527 -5 -1554 -26 -54 -40 -69 -70 -69 -139 0
-76 20 -109 85 -142 l44 -23 1533 0 c1675 0 1573 4 1625 -58 55 -65 38 -180
-32 -220 -24 -13 -29 -22 -24 -37 60 -189 57 -297 -13 -445 -135 -281 -495
-382 -759 -212 -199 129 -290 385 -216 606 l19 56 -465 0 c-438 0 -464 -1
-457 -17 35 -91 44 -217 24 -315 -43 -207 -230 -379 -445 -410 -256 -37 -504
128 -581 384 -22 76 -20 217 5 295 l20 63 -122 0 c-141 0 -224 17 -309 62
-279 149 -333 528 -106 750 66 64 155 111 243 127 33 6 60 12 61 13 1 2 -153
574 -341 1273 -248 918 -347 1273 -360 1282 -14 10 -91 13 -329 13 -346 0
-356 2 -402 70 l-23 33 0 -2322z"/>
<path d="M1340 3603 c-1 -5 39 -155 87 -335 l88 -328 288 0 289 0 -6 38 c-3
20 -22 159 -41 307 -20 149 -38 282 -41 298 l-6 27 -329 0 c-181 0 -329 -3
-329 -7z"/>
<path d="M2316 3583 c5 -32 84 -623 84 -635 0 -4 128 -8 285 -8 l285 0 0 335
0 335 -330 0 -329 0 5 -27z"/>
<path d="M3280 3270 l0 -330 280 0 279 0 5 33 c3 17 22 154 41 302 19 149 37
282 40 298 l5 27 -325 0 -325 0 0 -330z"/>
<path d="M4236 3573 c-3 -16 -22 -152 -41 -303 -19 -151 -38 -287 -41 -303
l-6 -27 258 2 259 3 72 310 c39 171 72 318 72 328 1 16 -19 17 -283 17 l-284
0 -6 -27z"/>
<path d="M1604 2613 c2 -10 39 -148 82 -306 45 -168 85 -299 96 -313 l19 -24
211 0 210 0 -6 33 c-3 17 -21 156 -41 307 -20 151 -38 285 -41 298 l-4 22
-266 0 c-248 0 -265 -1 -260 -17z"/>
<path d="M2445 2608 c2 -13 20 -144 40 -293 19 -148 38 -287 41 -307 l6 -38
219 0 219 0 0 330 0 330 -265 0 -265 0 5 -22z"/>
<path d="M3280 2300 l0 -330 215 0 c214 0 215 0 220 23 2 12 20 146 40 297 19
151 37 290 40 308 l6 32 -261 0 -260 0 0 -330z"/>
<path d="M4110 2623 c-1 -5 -20 -152 -43 -328 l-43 -320 195 -3 c176 -2 197
-1 212 15 11 12 41 122 84 308 36 160 69 300 72 313 l5 22 -241 0 c-133 0
-241 -3 -241 -7z"/>
<path d="M2085 1001 c-97 -44 -148 -146 -125 -249 21 -97 119 -172 222 -172
53 0 138 48 173 98 40 58 48 158 17 218 -56 108 -181 154 -287 105z"/>
<path d="M3972 999 c-162 -80 -161 -309 3 -397 40 -22 150 -22 190 0 129 69
164 232 74 342 -62 74 -179 98 -267 55z"/>
</g>
</svg>
