<?xml version="1.0" standalone="no"?>
<!DOCTYPE svg PUBLIC "-//W3C//DTD SVG 20010904//EN"
 "http://www.w3.org/TR/2001/REC-SVG-20010904/DTD/svg10.dtd">
<svg version="1.0" xmlns="http://www.w3.org/2000/svg"
 width="200.000000pt" height="200.000000pt" viewBox="0 0 200.000000 200.000000"
 preserveAspectRatio="xMidYMid meet">

<g transform="translate(0.000000,200.000000) scale(0.100000,-0.100000)"
fill="#000000" stroke="none">
<path d="M0 1000 l0 -1000 1000 0 1000 0 0 1000 0 1000 -1000 0 -1000 0 0
-1000z m437 541 c3 -11 13 -21 24 -24 25 -7 24 -24 -1 -32 -11 -3 -20 -13 -20
-21 0 -23 -23 -16 -55 17 -28 29 -28 30 -8 35 12 3 23 14 26 25 3 10 10 19 17
19 7 0 14 -9 17 -19z m210 -90 c3 -11 14 -22 25 -24 21 -6 16 -27 -6 -27 -8 0
-16 -9 -19 -20 -7 -25 -27 -26 -34 -1 -3 11 -13 21 -24 24 -25 7 -24 27 1 27
13 0 20 7 20 20 0 26 30 26 37 1z m-207 -120 c0 -10 9 -21 20 -24 11 -3 20
-10 20 -15 0 -6 -9 -14 -20 -17 -11 -3 -20 -13 -20 -21 0 -23 -23 -16 -55 17
-28 29 -28 30 -8 35 12 3 23 14 26 25 7 25 37 25 37 0z m437 -11 c34 -15 41
-22 36 -39 -6 -25 -2 -25 -49 -5 -58 24 -153 20 -213 -10 -82 -42 -130 -113
-138 -208 -13 -132 87 -256 220 -274 40 -6 43 -8 39 -31 -4 -22 -8 -24 -46
-18 -101 16 -194 84 -238 174 -35 69 -33 197 4 267 75 142 242 205 385 144z
m586 -6 c66 -34 106 -75 139 -142 28 -57 33 -77 32 -137 -1 -120 -63 -218
-172 -272 -48 -23 -70 -28 -132 -27 -85 0 -140 22 -140 54 0 24 3 24 60 4 153
-54 329 72 330 235 0 83 -19 130 -75 188 -41 42 -61 55 -112 69 -59 16 -74 30
-55 48 11 11 87 -1 125 -20z m-663 -124 c13 -13 20 -33 20 -60 0 -33 3 -40 20
-40 11 0 20 -4 20 -9 0 -10 -18 -68 -30 -96 -5 -11 -11 -37 -15 -58 -4 -24
-15 -43 -30 -53 -23 -15 -27 -15 -49 0 -19 12 -26 26 -28 58 -3 42 -4 43 -43
46 -47 4 -75 26 -75 58 0 33 26 54 69 54 37 0 39 1 44 41 9 72 56 100 97 59z
m554 9 c43 -20 43 -83 -2 -100 -31 -12 -77 14 -68 38 3 8 6 21 6 28 0 12 26
45 35 45 2 0 15 -5 29 -11z m134 -121 c17 -17 15 -64 -4 -82 -20 -20 -68 -21
-84 -1 -7 8 -12 26 -12 40 0 14 5 32 12 40 15 18 71 20 88 3z m-222 -65 c-10
-26 -18 -8 -9 23 5 21 8 24 11 11 2 -10 1 -25 -2 -34z m104 -53 c38 -38 16
-93 -39 -93 -33 0 -60 24 -61 56 0 23 35 57 60 57 11 0 29 -9 40 -20z m-946
-422 l14 -33 12 33 c16 42 50 45 50 5 0 -16 3 -45 6 -65 5 -31 4 -38 -10 -38
-12 0 -16 9 -16 34 0 42 -15 55 -24 21 -9 -35 -33 -31 -42 8 l-8 32 -6 -44
c-8 -73 -30 -64 -30 13 0 59 2 66 20 66 13 0 25 -11 34 -32z m194 0 c21 -21
14 -46 -13 -50 -33 -4 -32 -24 1 -21 34 3 26 -21 -8 -25 -33 -4 -58 21 -58 58
0 42 50 66 78 38z m185 3 c11 -2 9 -81 -2 -81 -6 0 -11 15 -13 33 -5 50 -32
42 -36 -10 -2 -24 -7 -43 -12 -43 -5 0 -10 19 -12 43 -2 29 -8 42 -18 42 -10
0 -16 -13 -18 -42 -5 -62 -32 -51 -32 12 0 46 45 61 143 46z m112 -1 c3 -5 1
-10 -6 -10 -7 0 -23 -10 -36 -22 -19 -17 -23 -19 -23 -5 0 33 50 61 65 37z
m466 0 c14 -8 19 -21 19 -56 0 -57 -23 -56 -30 1 -7 58 -30 58 -30 0 0 -56
-23 -58 -28 -3 -2 28 2 40 20 52 27 19 24 19 49 6z m133 -6 c23 -22 20 -44 -6
-44 -33 0 -55 -15 -34 -23 9 -4 23 -4 31 -1 9 4 15 0 15 -10 0 -21 -53 -22
-74 0 -20 20 -20 43 0 72 18 26 46 28 68 6z m116 0 c0 -10 -6 -14 -15 -11 -26
11 -25 -10 1 -22 18 -8 24 -18 22 -34 -2 -18 -10 -23 -40 -25 -30 -3 -38 0
-38 14 0 11 6 15 20 11 11 -3 22 -2 25 3 3 4 -6 11 -20 14 -18 5 -25 13 -25
30 0 30 7 36 42 36 19 0 28 -5 28 -16z m-350 -65 c0 -20 -4 -29 -12 -27 -18 6
-22 39 -6 49 18 12 18 12 18 -22z"/>
<path d="M575 519 c-10 -14 -1 -21 19 -13 9 3 13 10 10 15 -7 12 -21 11 -29
-2z"/>
<path d="M1465 519 c-10 -14 -1 -21 19 -13 9 3 13 10 10 15 -7 12 -21 11 -29
-2z"/>
</g>
</svg>
